<svg xmlns="http://www.w3.org/2000/svg" width="77" height="78" viewBox="0 0 77 78">
  <metadata><?xpacket begin="﻿" id="W5M0MpCehiHzreSzNTczkc9d"?>
<x:xmpmeta xmlns:x="adobe:ns:meta/" x:xmptk="Adobe XMP Core 5.6-c138 79.159824, 2016/09/14-01:09:01        ">
   <rdf:RDF xmlns:rdf="http://www.w3.org/1999/02/22-rdf-syntax-ns#">
      <rdf:Description rdf:about=""/>
   </rdf:RDF>
</x:xmpmeta>
                                                                                                    
                                                                                                    
                                                                                                    
                                                                                                    
                                                                                                    
                                                                                                    
                                                                                                    
                                                                                                    
                                                                                                    
                                                                                                    
                                                                                                    
                                                                                                    
                                                                                                    
                                                                                                    
                                                                                                    
                                                                                                    
                                                                                                    
                                                                                                    
                                                                                                    
                                                                                                    
                           
<?xpacket end="w"?></metadata>
<defs>
    <style>
      .cls-1 {
        fill: #d8d8d8;
        fill-rule: evenodd;
      }
    </style>
  </defs>
  <path id="portfolio-single-3" class="cls-1" d="M-2,79.992v-82H79v82H-2Zm79-80H0v78H7v0H9v0H25.058l0.942,1V78.065l-0.067-.072h0.139L26,78.065v0.929l1-1H44v0h2v0H77v-78Zm-11,10H51v-2H66v2Zm5,4H51V13H71v1Zm0,4H51V17H71v1Zm-11,4H51V21h9v1Zm4,12H51V29H64v5Zm-6,9H51V42h7v1Zm5,4H51V46H63v1Zm-3,4H51V50h9v1Zm-53-1H46v2H7v-2Zm37-.929h0V10.923h0V9.995H9v40H7v-40H7v-2H46v2h0v40H44V49.065ZM26.084,29.994L26.5,30.458,9,49.994H9V49.065Zm0.832,0L44,49.065v0.929h0L26.5,30.458ZM44,49.994h0ZM26.5,29.53L44,10v0.927L26.916,29.994Zm-0.416.464L9,10.922V9.995L26.5,29.53ZM9,60v18H7V60H9Zm0,0,16.933,18H25.058L9,60.922V59.995Zm-2,0v-2H46v2H7Zm37,0h0v0.925L27,77.994H26.071L44,59.995v0Zm0,0.925V60h2v18H44V60.923h0Z"/>
</svg>
