<svg xmlns="http://www.w3.org/2000/svg" width="77" height="78" viewBox="0 0 77 78">
  <metadata><?xpacket begin="﻿" id="W5M0MpCehiHzreSzNTczkc9d"?>
<x:xmpmeta xmlns:x="adobe:ns:meta/" x:xmptk="Adobe XMP Core 5.6-c138 79.159824, 2016/09/14-01:09:01        ">
   <rdf:RDF xmlns:rdf="http://www.w3.org/1999/02/22-rdf-syntax-ns#">
      <rdf:Description rdf:about=""/>
   </rdf:RDF>
</x:xmpmeta>
                                                                                                    
                                                                                                    
                                                                                                    
                                                                                                    
                                                                                                    
                                                                                                    
                                                                                                    
                                                                                                    
                                                                                                    
                                                                                                    
                                                                                                    
                                                                                                    
                                                                                                    
                                                                                                    
                                                                                                    
                                                                                                    
                                                                                                    
                                                                                                    
                                                                                                    
                                                                                                    
                           
<?xpacket end="w"?></metadata>
<defs>
    <style>
      .cls-1 {
        fill: #d8d8d8;
        fill-rule: evenodd;
      }
    </style>
  </defs>
  <path id="portfolio-single-4" class="cls-1" d="M-2,79.991v-82H79v82H-2Zm79-80h0v0H0v78H77v-43h0v-2h0V32.066h0V0.921h0V-0.006Zm-37.387,16.5L38.5,16.03,77-.005V0.921ZM19,39.995H30v2h0v8h0v2H19v-2h0v-8h0v-2Zm2,10h0.054L21,50.066l1-.072h5l1,0.072-0.053-.072H28v-8H27.946L28,41.923l-0.927.072H22l-1-.072,0.053,0.072H21v8Zm3.5-3.363L22,49.995H21.053l2.974-4Zm0.473-.637,2.973,4H27l-2.5-3.363ZM24.5,45.36L27,42l0.073-.006h0.874l-2.973,4ZM24.027,46l-2.975-4H22l2.5,3.365ZM58,65.995H19V65H58v1Zm-6,4H25V69H52v1ZM47,50h0v-8h0v-2H58v2h0v8h0v2H47V50Zm2,0h0.053L49,50.066,49.994,50h5.012L56,50.066,55.947,50H56v-8H55.947L56,41.923l-0.919.071H49.991L49,41.923l0.053,0.071H49v8Zm3.5-3.364L50,49.995H49.053l2.975-4Zm0,0,0.473-.637,2.974,4H55Zm0-1.272L55,42l0.08-.006h0.867l-2.974,4Zm0,0L52.027,46l-2.975-4H50ZM31,57.995H46v3H31v-3Zm2-8h0v-8h0v-2H44v2h0v8h0v2H33v-2Zm2,0h0.054L35,50.066l1-.072h5l1,0.072-0.054-.072H42v-8H41.947L42,41.923l-0.921.071H35.994L35,41.923l0.053,0.071H35v8Zm3.5-3.363L36,49.994H35.053l2.974-4Zm0.473-.637,2.973,4H41l-2.5-3.363ZM38.5,45.36L41,42l0.078-.006h0.868l-2.974,4Zm0,0L38.027,46l-2.975-4H36ZM0,32.993H77v2H0v-2ZM38.5,16.958l1.113-.464L77,32.066v0.927h0ZM0,32.993H0V32.066L37.387,16.494,38.5,16.958ZM0,0.921V-0.006L38.5,16.03l-1.113.464Z"/>
</svg>
