<svg xmlns="http://www.w3.org/2000/svg" width="77" height="78" viewBox="0 0 77 78">
  <metadata><?xpacket begin="﻿" id="W5M0MpCehiHzreSzNTczkc9d"?>
<x:xmpmeta xmlns:x="adobe:ns:meta/" x:xmptk="Adobe XMP Core 5.6-c142 79.160924, 2017/07/13-01:06:39        ">
   <rdf:RDF xmlns:rdf="http://www.w3.org/1999/02/22-rdf-syntax-ns#">
      <rdf:Description rdf:about=""/>
   </rdf:RDF>
</x:xmpmeta>
                                                                                                    
                                                                                                    
                                                                                                    
                                                                                                    
                                                                                                    
                                                                                                    
                                                                                                    
                                                                                                    
                                                                                                    
                                                                                                    
                                                                                                    
                                                                                                    
                                                                                                    
                                                                                                    
                                                                                                    
                                                                                                    
                                                                                                    
                                                                                                    
                                                                                                    
                                                                                                    
                           
<?xpacket end="w"?></metadata>
<defs>
    <style>
      .cls-1 {
        fill: #d8d8d8;
        fill-rule: evenodd;
      }
    </style>
  </defs>
  <path id="shop-single-5" class="cls-1" d="M-2,79.992v-82H79v82H-2Zm79-80H0v78H7v0H9v0H20.335l0.665,1V78.065l-0.047-.072h0.1L21,78.065v0.929l0.72-1H34v0h2v0h5v0h2v0H54.335l0.665,1V78.065l-0.047-.072h0.1L55,78.065v0.929l0.72-1H68v0h2v0h7v-78Zm-36,17H71v1H41v-1Zm0-4H71v1H41v-1Zm0-5H66v2H41v-2Zm19,14H41V21H60v1Zm4,12H41v-5H64v5Zm-6,9H41V42H58v1Zm5,4H41v-1H63v1Zm-3,4H41V50H60v1Zm-53-1H36v2H7v-2Zm27-.929h0V10.922h0V9.994H9v40H7v-40H7v-2H36v2h0v40H34V49.065ZM21.2,29.994l0.3,0.464L9,49.993H9V49.065Zm0.594,0L34,49.064v0.929h0L21.5,30.458Zm12.2,20h0ZM21.5,29.53L34,9.995v0.927L21.8,29.994Zm-0.3.464L9,10.921V9.994L21.5,29.53ZM9,60v18H7V60H9Zm0,0,11.952,18H20.335L9,60.922V59.995Zm-2,0v-2H36v2H7Zm27,0h0v0.926L21.72,77.993H21.051L34,59.995v0Zm0,0.925V60h2v18H34V60.923h0ZM43,60v18H41V60h2Zm0,0,11.952,18H54.335L43,60.922V59.995Zm-2,0v-2H70v2H41Zm27,0h0v0.926L55.72,77.993H55.051L68,59.995v0Zm0,0.925V60h2v18H68V60.923h0Z"/>
</svg>
