<svg xmlns="http://www.w3.org/2000/svg" width="77" height="78" viewBox="0 0 77 78">
  <metadata><?xpacket begin="﻿" id="W5M0MpCehiHzreSzNTczkc9d"?>
<x:xmpmeta xmlns:x="adobe:ns:meta/" x:xmptk="Adobe XMP Core 5.6-c142 79.160924, 2017/07/13-01:06:39        ">
   <rdf:RDF xmlns:rdf="http://www.w3.org/1999/02/22-rdf-syntax-ns#">
      <rdf:Description rdf:about=""/>
   </rdf:RDF>
</x:xmpmeta>
                                                                                                    
                                                                                                    
                                                                                                    
                                                                                                    
                                                                                                    
                                                                                                    
                                                                                                    
                                                                                                    
                                                                                                    
                                                                                                    
                                                                                                    
                                                                                                    
                                                                                                    
                                                                                                    
                                                                                                    
                                                                                                    
                                                                                                    
                                                                                                    
                                                                                                    
                                                                                                    
                           
<?xpacket end="w"?></metadata>
<defs>
    <style>
      .cls-1 {
        fill: #d8d8d8;
        fill-rule: evenodd;
      }
    </style>
  </defs>
  <path id="shop-single-6" class="cls-1" d="M-2,79.991v-82H79v82H-2Zm79-80h0v0H0v78H77v-43h0v-2h0V32.066h0V0.92h0V-0.006Zm-37.387,16.5L38.5,16.03,77-.006V0.92ZM28,46.994H7v-2H28v2Zm5,4H7v-1H33v1Zm0,4H7v-1H33v1Zm-11,4H7V58H22v1Zm4,12H7v-5H26v5Zm17,2H42v-29h1V73Zm3-4v-1H62v1H46Zm24-4H43v-1H70v1Zm0-1h0v-20h1V73H70v0h0v-1h0v-7h0v-1Zm-27,9v-1H70v1H43Zm3-25h7v1H46v-1Zm0,4H67v1H46v-1Zm0,9V60H61v1H46Zm0-5H67v1H46v-1Zm-4-13H71v1H42v-1Zm-42-10H77v2H0v-2ZM38.5,16.957l1.113-.464L77,32.066v0.927h0ZM0,32.993H0V32.066L37.387,16.493,38.5,16.957ZM0,0.92V-0.006L38.5,16.03l-1.113.464Z"/>
</svg>
