<svg xmlns="http://www.w3.org/2000/svg" width="77" height="78" viewBox="0 0 77 78">
  <metadata><?xpacket begin="﻿" id="W5M0MpCehiHzreSzNTczkc9d"?>
<x:xmpmeta xmlns:x="adobe:ns:meta/" x:xmptk="Adobe XMP Core 5.6-c138 79.159824, 2016/09/14-01:09:01        ">
   <rdf:RDF xmlns:rdf="http://www.w3.org/1999/02/22-rdf-syntax-ns#">
      <rdf:Description rdf:about=""/>
   </rdf:RDF>
</x:xmpmeta>
                                                                                                    
                                                                                                    
                                                                                                    
                                                                                                    
                                                                                                    
                                                                                                    
                                                                                                    
                                                                                                    
                                                                                                    
                                                                                                    
                                                                                                    
                                                                                                    
                                                                                                    
                                                                                                    
                                                                                                    
                                                                                                    
                                                                                                    
                                                                                                    
                                                                                                    
                                                                                                    
                           
<?xpacket end="w"?></metadata>
<defs>
    <style>
      .cls-1 {
        fill: #d8d8d8;
        fill-rule: evenodd;
      }
    </style>
  </defs>
  <path id="portfolio-single-1" class="cls-1" d="M-2,79.992v-82H79v82H-2Zm79-80H0v78H77v-78Zm-70,55H18v2h0v8h0v2H7v-2H7v-8H7v-2Zm2,10H9.053L9,65.066l1-.072h5l1,0.072-0.053-.072H16v-8H15.946L16,56.923l-0.927.072H10l-1-.072,0.053,0.072H9v8Zm3.5-3.363L10,64.995H9.053l2.974-4Zm0.473-.637,2.973,4H15l-2.5-3.363ZM12.5,60.36L15,57l0.073-.006h0.874l-2.973,4ZM12.027,61l-2.975-4H10l2.5,3.365ZM71,71H7V70H71v1Zm-25,4H7V74H46v1Zm5-54h9v1H51V21Zm0,8H64v5H51V29Zm0,13h7v1H51V42Zm0,9V50h9v1H51Zm0-5H63v1H51V46Zm0-29H71v1H51V17Zm0-4H71v1H51V13Zm0-5H66v2H51v-2ZM46,65v2H35V65h0v-8h0v-2H46v2h0v8h0Zm-2.919-8H37.991L37,56.923l0.053,0.071H37v8h0.053L37,65.066,37.994,65h5.012L44,65.066,43.947,65H44v-8H43.947L44,56.923Zm-2.107,4L40.5,60.36,43,57l0.08-.006h0.867ZM40.5,60.36L40.027,61l-2.975-4H38Zm0,1.272L38,64.995H37.053l2.975-4Zm0,0,0.473-.637,2.974,4H43ZM32,64.994v2H21v-2h0v-8h0v-2H32v2h0v8h0Zm-2.921-8H23.994L23,56.923l0.053,0.071H23v8h0.054L23,65.066l1-.072h5l1,0.072-0.054-.072H30v-8H29.947L30,56.923Zm-2.105,4L26.5,60.36,29,57l0.078-.006h0.868ZM26.5,60.36L26.027,61l-2.975-4H24Zm0,1.272L24,64.994H23.053l2.974-4Zm0.473-.637,2.973,4H29l-2.5-3.363ZM7,49.995H46v2H7v-2Zm37-.929h0V10.923h0V9.995H9v40H7v-40H7v-2H46v2h0v40H44V49.065ZM26.084,29.994L26.5,30.458,9,49.994H9V49.065Zm0.832,0L44,49.065v0.929h0L26.5,30.458ZM44,49.994h0ZM26.5,29.53L44,10v0.927L26.916,29.994Zm-0.416.464L9,10.922V9.995L26.5,29.53Z"/>
</svg>
