<svg xmlns="http://www.w3.org/2000/svg" width="77" height="78" viewBox="0 0 77 78">
  <metadata><?xpacket begin="﻿" id="W5M0MpCehiHzreSzNTczkc9d"?>
<x:xmpmeta xmlns:x="adobe:ns:meta/" x:xmptk="Adobe XMP Core 5.6-c138 79.159824, 2016/09/14-01:09:01        ">
   <rdf:RDF xmlns:rdf="http://www.w3.org/1999/02/22-rdf-syntax-ns#">
      <rdf:Description rdf:about=""/>
   </rdf:RDF>
</x:xmpmeta>
                                                                                                    
                                                                                                    
                                                                                                    
                                                                                                    
                                                                                                    
                                                                                                    
                                                                                                    
                                                                                                    
                                                                                                    
                                                                                                    
                                                                                                    
                                                                                                    
                                                                                                    
                                                                                                    
                                                                                                    
                                                                                                    
                                                                                                    
                                                                                                    
                                                                                                    
                                                                                                    
                           
<?xpacket end="w"?></metadata>
<defs>
    <style>
      .cls-1 {
        fill: #d8d8d8;
        fill-rule: evenodd;
      }
    </style>
  </defs>
  <path id="portfolio-single-2" class="cls-1" d="M-2,79.992v-82H79v82H-2Zm79-80H0v78H7v0H9v0H22.06L22,78.065v0.929l0.845-1h6.349l0.806,1V78.065l-0.058-.072H44v0h2v0H77v-78Zm-11,10H51v-2H66v2Zm5,4H51V13H71v1Zm0,4H51V17H71v1Zm-11,4H51V21h9v1Zm4,12H51V29H64v5Zm-6,9H51V42h7v1Zm5,4H51V46H63v1Zm-3,4H51V50h9v1Zm-14-1H44V49.065h0V10.923h0V9.995H9v40H7v-40H7v-2H46v2h0v40Zm-19.915-20L9,10.922V9.995L26.5,29.53ZM44,49.065v0.929L26.5,30.458l0.416-.464ZM26.5,29.53L44,10v0.927L26.916,29.994ZM44,49.995h0Zm-35,0V49.065L26.084,29.994,26.5,30.458Zm0,2v26H7V52H9ZM26.093,74.144l-3.248,3.85H22.06l3.65-4.325Zm0.383-.454,3.466,4.3H29.194l-3.1-3.85ZM44,52.922V52h2v26H44V52.923h0Zm0,0L26.476,73.69l-0.383-.475L44,51.995v0h0v0.925ZM25.71,73.669L9,52.922V51.995l17.093,21.22ZM7,51.995v-2H46v2H7Z"/>
</svg>
